<svg width="713" height="768" viewBox="0 0 713 768" fill="none" xmlns="http://www.w3.org/2000/svg">
<g clip-path="url(#clip0_202_746)">
<path d="M313.615 238.457C312.905 239.218 312.452 239.428 311.46 239.727L309.872 244.07C312.367 243.08 314.576 241.817 316.871 240.435L314.813 240.192L313.615 238.457Z" fill="#FFEEBC"/>
<path d="M302.728 37.6387C299.688 38.359 297.327 39.5156 295.668 42.2813C293.978 45.0963 293.736 48.4424 294.708 51.5583C295.609 54.4427 297.768 56.3904 300.402 57.6817C300.27 55.0804 297.642 52.9459 297.463 49.9695C297.165 45.013 299.929 41.8125 303.082 38.4367L302.728 37.6387Z" fill="#752D1A"/>
<path d="M309.446 38.3145C309.016 45.1089 307.563 52.6198 305.442 59.1099C307.353 58.9835 308.774 58.4143 310.488 57.5956C312.936 56.0131 314.684 54.4309 315.361 51.4503L315.456 51.0007C315.894 49.0965 316.078 46.8268 315.448 44.9421C314.399 41.7999 312.288 39.8442 309.446 38.3145Z" fill="#BD6B49"/>
<path d="M356.265 59.1415C358.656 58.1657 360.747 56.9691 362.168 54.7159C363.807 52.1177 364.381 49.0384 363.601 46.0461C362.706 42.6145 360.639 40.6397 357.689 38.8496L355.16 51.1431C354.576 53.8012 353.694 56.5977 353.487 59.3004L356.265 59.1415Z" fill="#BD6B49"/>
<path d="M544.424 523.72L542.01 517.429C535.757 500.584 523.215 488.246 507.13 480.826L508.289 487.012C511.115 486.507 517.466 491.35 519.778 492.969C524.198 496.065 529.364 500.679 532.438 505.125C535.258 509.202 537.865 513.522 540.223 517.886C541.296 519.871 542.124 522.259 543.42 524.066L544.424 523.72Z" fill="#FAC647"/>
<path d="M309.445 38.3129C307.092 37.4487 305.209 37.2384 302.728 37.6386L303.082 38.4366C299.929 41.8124 297.165 45.0129 297.463 49.9694C297.642 52.9458 300.27 55.0803 300.401 57.6816C301.299 58.1013 302.147 58.4917 303.109 58.7523L305.441 59.1084C307.563 52.6182 309.016 45.1074 309.445 38.3129Z" fill="#8B3A23"/>
<path d="M543.42 524.067C542.125 522.26 541.297 519.872 540.223 517.887C537.865 513.524 535.258 509.204 532.438 505.126C529.364 500.681 524.198 496.066 519.778 492.971C517.466 491.351 511.115 486.508 508.289 487.013C508.548 488.598 508.664 490.415 509.115 491.942C512.074 493.532 515.125 495.071 517.83 497.074C527.541 504.262 535.639 515.372 540.748 526.216L543.42 524.067Z" fill="#F6AE1E"/>
<path d="M569.336 563.843C565.225 562.921 561.828 560.973 558.29 558.775C552.878 555.414 546.733 551.062 543.184 545.666C542.078 543.985 540.669 539.655 539.251 538.617L538.687 539.131C540.029 548.022 544.985 554.796 552.117 560.045C562.03 567.341 573.728 569.869 585.844 568.012C588.647 567.582 591.789 566.919 594.34 565.672L587.592 565.094C586.169 565.598 584.834 565.102 583.422 565.485C578.572 566.801 573.962 565.296 569.336 563.843Z" fill="#5E1E16"/>
<path d="M569.334 563.844C568.868 563.103 568.548 562.668 567.772 562.228C559.772 557.688 552.559 548.32 548.061 540.394C546.632 537.877 545.406 535.197 544.295 532.525C543.455 530.506 542.615 527.577 540.75 526.422C538.188 530.521 537.676 534.316 538.638 539.005L538.685 539.132L539.249 538.618C540.667 539.656 542.077 543.986 543.182 545.668C546.731 551.063 552.877 555.415 558.289 558.776C561.826 560.974 565.223 562.922 569.334 563.844Z" fill="#752D1A"/>
<path d="M357.689 38.8496C355.05 37.7123 351.549 37.3208 348.805 38.3784C346.055 39.4386 344.014 41.7071 342.912 44.4022C341.863 46.967 341.929 49.9478 343.128 52.4528C344.385 55.0784 346.397 56.9072 348.887 58.3408L353.487 59.3004C353.694 56.5977 354.576 53.8012 355.16 51.1431L357.689 38.8496Z" fill="#8B3A23"/>
<path d="M425.798 107.911C425.893 107.512 425.825 107.725 426.072 107.209L426.281 106.78L426.053 106.299C423.686 107.159 418.943 108.525 416.463 108.187L415.939 106.705C405.358 114.005 391.826 120.86 378.563 118.449L377.048 118.125C377.864 119.746 378.772 122.503 379.948 123.802C396.862 123.815 413.22 119.991 425.798 107.911Z" fill="#EE9427"/>
<path d="M306.701 426.084C302.174 425.637 297.98 422.633 294.455 419.973L287.656 440.139C293.137 440.517 297.643 443.082 301.804 446.516C302.155 442.563 303.707 438.207 304.672 434.305C305.339 431.608 305.676 428.875 306.725 426.279L306.701 426.084Z" fill="#EE9427"/>
<path d="M283.771 101.338C279.637 96.0082 272.878 90.7755 267.363 86.928C249.781 74.6592 228.181 75.7755 208.081 79.3492L211.697 89.7052C211.79 88.62 211.757 88.581 211.501 87.5617L211.498 87.093L210.934 86.0617C210.542 85.275 210.266 84.3525 210.094 83.4952C209.931 82.6792 210.116 83.4322 209.626 82.4992L209.438 81.7492L209.327 81.2805C209.2 80.6452 209.248 80.8365 209.344 80.0602C211.672 80.25 214.076 80.3122 216.375 80.6955C220.613 81.4012 225.472 80.52 229.661 81.4117C230.621 81.6165 231.278 81.2167 232.213 81.1957C235.003 81.135 238.548 81.9862 241.333 82.4407C254.159 84.5347 264.216 89.2207 273.463 98.454C275.602 100.589 277.897 102.791 279.587 105.305L279.865 105.73L280.878 104.626C281.533 103.311 282.711 102.381 283.771 101.338Z" fill="#FAC647"/>
<path d="M548.601 522.973C547.172 523.137 545.797 523.265 544.424 523.72L543.42 524.065L540.748 526.214L540.751 526.42C542.617 527.575 543.457 530.504 544.297 532.524C545.407 535.195 546.634 537.875 548.062 540.392C552.56 548.319 559.774 557.686 567.773 562.226C568.549 562.666 568.87 563.101 569.335 563.842C573.961 565.296 578.572 566.8 583.422 565.485C584.834 565.102 586.168 565.598 587.592 565.094L586.562 564.806C583.912 565.065 581.275 564.76 578.731 564.012C575.328 563.011 571.673 561.374 569.196 558.762C564.374 553.676 562.438 545.581 558.662 539.629L552.242 530.502C551.032 528.937 549.16 527.135 548.327 525.364C547.879 524.413 548.28 523.894 548.601 522.973Z" fill="#8B3A23"/>
<path d="M303.5 381.508L294.455 419.972C297.981 422.632 302.174 425.636 306.702 426.083C307.775 422.267 308.197 418.18 308.939 414.28L314.17 381.836L303.5 381.508Z" fill="#8B3A23"/>
<path d="M301.805 446.516C297.644 443.082 293.138 440.517 287.657 440.139C284.648 450.934 281.973 462 283.02 473.309C285.402 473.469 288.329 473.524 290.659 473.011C295.091 472.036 298.761 470.46 302.298 467.619L302.385 467.371C301.673 460.536 300.799 453.366 301.805 446.516Z" fill="#8B3A23"/>
<path d="M586.561 564.806C584.104 563.571 581.85 562.351 580.416 559.874C579.169 557.721 579.161 555.355 579.01 552.944C578.475 544.423 577.102 537.558 570.842 531.241C564.688 525.03 557.154 522.99 548.599 522.973C548.278 523.894 547.878 524.413 548.326 525.364C549.158 527.135 551.031 528.937 552.241 530.502L558.661 539.629C562.437 545.581 564.373 553.676 569.194 558.762C571.672 561.374 575.326 563.011 578.73 564.012C581.274 564.76 583.91 565.065 586.561 564.806Z" fill="#AA5841"/>
<path d="M279.863 105.731L279.586 105.306C277.896 102.792 275.6 100.59 273.462 98.4543C264.215 89.221 254.158 84.535 241.331 82.441C238.547 81.9865 235.002 81.1353 232.211 81.196C231.277 81.217 230.62 81.6168 229.66 81.412C225.47 80.5203 220.612 81.4015 216.374 80.6958C214.075 80.3125 211.67 80.2503 209.343 80.0605C209.246 80.8368 209.198 80.6455 209.326 81.2808L209.437 81.7495L209.624 82.4995C210.115 83.4325 209.93 82.6795 210.093 83.4955C210.265 84.3528 210.541 85.2753 210.933 86.062L211.497 87.0933L211.499 87.562C211.756 88.5813 211.789 88.6203 211.696 89.7055C216.171 101.703 224.729 113.615 236.624 118.983C246.117 123.268 259.337 123.888 269.183 120.173C270.229 119.778 271.096 119.398 271.943 118.668L271.876 117.937L272.753 117C273.216 116.377 273.089 116.124 272.948 115.425C271.358 115.272 268.976 116.858 267.374 117.35C260.837 119.358 253.247 119.931 246.54 118.55L246.026 118.437L243.097 117.822C238.94 116.374 235.247 114.598 231.884 111.702C227.648 108.052 223.676 102.515 222.093 97.1245C221.229 94.1823 221.029 91.183 220.811 88.1448C225.097 87.8598 230.024 87.055 234.268 87.607C240.005 88.054 245.569 88.6465 251.039 90.5643C261.122 94.0983 269.066 102.011 276.422 109.4L277.068 109.964C278.144 108.632 278.926 107.156 279.863 105.731Z" fill="#EE9427"/>
<path d="M386.681 399.164C386.111 399.697 385.512 400.198 385.043 400.823C387.911 403.525 390.399 406.565 393.339 409.204C395.318 410.98 397.859 412.294 399.7 414.148C414.729 422.03 430.91 425.365 447.101 429.929C457.314 432.349 467.873 437.168 476.432 443.225C478.412 444.625 480.587 446.03 482.357 447.68C491.423 456.682 498.677 466.77 502.566 479.035C505.343 487.077 506.708 496.278 506.968 504.779L505.027 532.128L500.454 586.432L499.063 602.336L498.448 682.597L501.375 684.404C499.626 674.963 499.928 664.531 499.509 654.92L499.829 624.546L505.384 559.532C507.551 537.285 511.43 514.276 509.115 491.94C508.664 490.413 508.548 488.596 508.289 487.012L507.131 480.826C504.621 473.735 501.772 466.832 497.667 460.489C486.385 443.053 469.079 433.863 449.66 428.125C438.848 424.931 427.791 422.54 417.103 418.909C404.603 414.662 394.869 409.726 386.681 399.164Z" fill="#FEEFA5"/>
<path d="M234.268 87.607C230.024 87.055 225.097 87.8597 220.812 88.1447C221.029 91.183 221.229 94.1822 222.093 97.1245C223.677 102.515 227.648 108.052 231.885 111.701C235.247 114.598 238.94 116.374 243.097 117.821L246.027 118.436L246.54 118.55C253.248 119.931 260.837 119.357 267.375 117.35C268.976 116.858 271.358 115.271 272.948 115.424C273.089 116.124 273.216 116.377 272.754 116.999L271.876 117.937L271.944 118.668L272.376 119.666C273.356 116.241 275.385 113.089 277.068 109.964L276.422 109.4C269.066 102.011 261.122 94.0982 251.039 90.5642C245.569 88.6465 240.005 88.054 234.268 87.607Z" fill="#E09779"/>
<path d="M234.268 87.6074L233.338 87.9374C233.993 90.1342 235.128 92.1944 236.124 94.2524C239.091 100.38 242.816 106.345 248.982 109.715C254.799 112.894 263.253 114.177 269.702 112.252C272.113 111.532 274.234 110.645 276.422 109.4C269.066 102.011 261.122 94.0987 251.039 90.5647C245.569 88.6469 240.005 88.0544 234.268 87.6074Z" fill="#F8D6C1"/>
<path d="M425.798 107.911C434.712 100.648 440.556 90.8645 444.881 80.384C433.194 77.7013 420.341 77.054 408.448 78.6965C391.597 81.0238 377.964 91.205 367.845 104.401C368.519 105.511 369.143 106.524 370.04 107.468L373.164 111.746C373.88 113.893 375.808 116.188 377.049 118.125L378.564 118.449C391.827 120.86 405.359 114.005 415.94 106.705L416.463 108.187C418.944 108.525 423.687 107.159 426.053 106.299L426.282 106.78L426.072 107.209C425.825 107.725 425.893 107.512 425.798 107.911Z" fill="#FAC647"/>
<path d="M429.06 88.0153C430.299 86.6053 431.254 84.8585 432.262 83.273C414.222 81.2263 397.475 84.3875 383.068 95.8558L370.039 107.469L373.162 111.747C376.913 108.121 380.245 104.195 384.232 100.795C387.95 97.6235 392.321 95.018 396.688 92.8393C404.424 88.9798 412.661 87.4573 421.267 87.338C423.903 87.3013 426.526 87.1783 429.06 88.0153Z" fill="#EE9427"/>
<path d="M429.061 88.016C426.527 87.179 423.904 87.302 421.268 87.3388C412.662 87.458 404.425 88.9805 396.688 92.84C392.322 95.0188 387.951 97.6243 384.232 100.795C380.245 104.196 376.914 108.121 373.163 111.748C373.879 113.895 375.808 116.189 377.048 118.126L378.563 118.45C391.826 120.862 405.358 114.007 415.939 106.706C421.988 101.557 426.253 95.4508 429.061 88.016Z" fill="#F8D6C1"/>
<path d="M353.486 59.2995L348.886 58.3398L343.159 87.3359L334.837 85.3484L334.43 85.7586C333.814 86.3399 334.08 86.1486 333.247 86.4374C334.339 87.8061 337.945 88.5809 339.58 89.6504C345.583 93.5766 351.553 98.9474 355.93 104.625C359.11 108.749 365.32 116.181 365.323 121.563L364.357 123.165C365.845 128.251 366.334 133.309 366.806 138.562C368.214 154.242 365.826 169.463 358.201 183.345C354.945 189.271 350.262 194.578 347.396 200.637C345.676 204.274 344.822 208.154 344.023 212.071C343.657 213.867 342.903 216.352 343.155 218.156C350.78 213.961 357.675 206.975 363.705 200.794C364.522 199.501 365.498 198.371 366.481 197.204C371.306 191.212 375.532 185.458 378.712 178.394C386.643 160.773 386.698 141.764 379.947 123.803C378.771 122.504 377.863 119.747 377.047 118.126C375.807 116.188 373.879 113.894 373.162 111.747L370.039 107.469C369.142 106.525 368.518 105.512 367.844 104.401C364.161 100.104 359.942 96.6854 355.537 93.1784L356.264 59.1405L353.486 59.2995Z" fill="#FDDD7F"/>
<path d="M353.486 59.2995L348.886 58.3398L343.159 87.3359C344.408 88.2029 346.736 88.7264 348.218 89.2814L350.452 74.2374C351.304 69.1806 352.066 64.2393 353.486 59.2995Z" fill="#F6AE1E"/>
<path d="M301.697 181.268C295.444 179.699 289.038 178.86 282.618 179.863C280.554 180.187 278.514 180.88 276.498 181.414L275.83 181.641L270.343 185.062C268.92 185.965 267.574 187.104 265.998 187.721L265.605 187.506L265.425 187.915C264.262 189.978 261.439 191.805 259.908 193.875C254.312 201.44 252.712 213.022 254.595 222.059C256.236 229.927 260.516 236.866 267.339 241.242C277.139 247.525 292.162 248.806 303.375 246.261C305.625 245.751 307.788 245.065 309.872 244.069L311.46 239.726C312.452 239.427 312.905 239.218 313.615 238.456L314.813 240.191L316.871 240.434L321.492 237.235C325.306 233.941 328.23 230.917 329.583 225.922L329.692 225.127C331.189 213.068 328.827 204.167 321.384 194.61C316.241 187.923 309.553 184.044 301.697 181.268Z" fill="#FDDD7F"/>
<path d="M273.31 186.736C272.485 186.706 271.621 186.677 270.825 186.927C269.337 187.397 267.863 188.749 267.141 190.121C266.524 191.293 266.434 192.663 266.889 193.903C267.6 195.843 269.161 196.626 270.9 197.477L272.794 197.352C274.443 197.142 275.772 196.189 276.695 194.812C277.375 193.798 277.603 192.186 277.294 191.013C276.753 188.958 275.035 187.758 273.31 186.736Z" fill="#5E1E16"/>
<path d="M301.697 181.268C301.831 183.278 301.959 185.131 302.765 187.013L303.267 187.203C301.552 188 299.95 189.023 299.178 190.838C298.696 191.972 298.656 193.442 299.151 194.576C299.813 196.091 301.156 197.052 302.502 197.918L301.139 198.562C300.678 200.41 302.61 203.712 303.595 205.355C307.531 211.924 311.018 216.947 312.529 224.702C313.489 229.632 312.549 234.902 311.46 239.726C312.452 239.426 312.905 239.217 313.615 238.456L314.813 240.191L316.871 240.434L321.492 237.234C325.306 233.941 328.23 230.916 329.583 225.921L329.692 225.126C331.189 213.068 328.827 204.167 321.384 194.609C316.241 187.922 309.553 184.043 301.697 181.268Z" fill="#FEEFA5"/>
<path d="M303.266 187.203C301.552 188 299.95 189.023 299.177 190.838C298.696 191.972 298.656 193.442 299.151 194.576C299.813 196.091 301.156 197.052 302.502 197.918C304.528 198.069 305.93 198.15 307.607 196.889C308.81 195.986 309.513 194.921 309.687 193.411C309.843 192.057 309.375 190.391 308.49 189.352C306.93 187.52 305.581 187.386 303.266 187.203Z" fill="#5E1E16"/>
<path d="M321.384 194.609L320.603 195.374C320.677 203.645 320.886 211.718 319.348 219.899C318.156 226.243 315.811 232.404 313.615 238.456L314.813 240.191L316.871 240.434L321.492 237.234C325.306 233.941 328.23 230.916 329.583 225.921L329.692 225.126C331.189 213.068 328.827 204.167 321.384 194.609Z" fill="#FEFDF6"/>
<path d="M310.489 57.5957C308.775 58.4144 307.354 58.9836 305.442 59.11L303.11 58.754L299.362 90.4441C293.785 93.2963 287.868 96.4643 283.771 101.34C282.711 102.383 281.533 103.313 280.878 104.627L279.864 105.732C278.927 107.157 278.145 108.633 277.069 109.965C275.386 113.09 273.357 116.243 272.377 119.667C271.272 122.426 270.72 125.394 270.054 128.282C267.711 138.451 267.006 149.105 266.313 159.494C265.701 168.688 264.957 178.316 265.605 187.507L265.998 187.722C267.574 187.105 268.92 185.966 270.343 185.063L275.83 181.642L276.498 181.415C278.514 180.881 280.554 180.188 282.618 179.864C289.038 178.861 295.444 179.7 301.697 181.269C309.553 184.045 316.241 187.924 321.384 194.611L322.313 194.412C322.491 191.936 322.17 189.532 322.011 187.065L320.356 167.784C319.044 145.943 319.363 124.044 319.712 102.171C319.801 96.5611 318.99 89.7091 320.044 84.2761L312.097 85.9958L310.489 57.5957Z" fill="#F6AE1E"/>
<path d="M276.498 181.414C278.083 179.808 280.021 177.956 279.935 175.497C279.876 173.826 278.963 172.64 277.68 171.67C276.534 170.804 274.747 170.649 273.373 170.937C272.015 171.221 270.714 172.011 270.035 173.25C269.402 174.407 269.286 175.698 269.671 176.958C270.12 178.431 271.766 180.062 273.114 180.794C273.934 181.239 274.926 181.434 275.83 181.641L276.498 181.414Z" fill="#BD6B49"/>
<path d="M299.696 112.273C294.429 112.006 289.025 112.779 284.317 115.254C281.921 116.513 279.179 118.25 278.31 120.937C278.465 122.047 278.663 122.479 279.388 123.332L280.305 123.358C283.281 121.165 286.379 118.987 289.924 117.832L290.595 117.622C294.137 116.494 297.781 117.442 301.312 116.49C302.379 115.483 302.542 115.536 302.664 114C301.592 112.808 301.178 112.75 299.696 112.273Z" fill="#8B3A23"/>
<path d="M293.214 130.19C289.335 130.037 286.108 130.256 282.608 132.206C278.73 134.368 275.759 138.101 274.555 142.376C273.125 147.453 273.359 152.771 276.09 157.382C278.679 161.754 282.482 163.761 287.227 165.023C289.652 165.125 292.148 165.191 294.495 164.504L295.125 164.31C296.442 163.922 297.629 163.526 298.837 162.852C302.989 160.535 305.699 156.501 306.895 151.961C308.15 147.198 307.728 142.532 305.153 138.281C302.414 133.759 298.267 131.362 293.214 130.19Z" fill="#FEFDF6"/>
<path d="M292.682 137.678C290.116 137.471 287.57 137.456 285.2 138.556C282.053 140.016 279.754 142.058 278.619 145.444C277.582 148.54 277.874 151.817 279.37 154.702C281.107 158.052 283.921 159.737 287.4 160.87C289.968 161.223 292.43 161.2 294.905 160.344C297.919 159.302 300.536 156.887 301.78 153.937C303.082 150.851 302.652 147.184 301.252 144.217C299.615 140.746 296.15 138.851 292.682 137.678Z" fill="#070405"/>
<path d="M290.332 140.244C289.191 140.126 288.299 140.223 287.176 140.438C285.973 141.393 285.719 141.657 285.125 143.063C285.3 144.803 285.933 145.684 287.001 147.033C288.107 147.257 288.654 147.437 289.633 146.765C290.664 146.057 291.589 144.694 291.741 143.438C291.911 142.033 291.102 141.287 290.332 140.244Z" fill="#FEFDF6"/>
<path d="M334.838 85.3495C329.788 84.55 325.177 84.1817 320.043 84.2762C318.99 89.7092 319.8 96.5612 319.711 102.171C319.362 124.044 319.043 145.943 320.355 167.784L322.011 187.065C322.169 189.532 322.491 191.936 322.312 194.412L321.383 194.611C328.827 204.168 331.188 213.069 329.691 225.128L329.583 225.923C334.161 223.639 339.098 221.28 343.155 218.157C342.903 216.353 343.658 213.868 344.024 212.072C344.823 208.155 345.676 204.275 347.397 200.638C350.262 194.579 354.945 189.272 358.201 183.346C365.826 169.464 368.214 154.243 366.807 138.563C366.335 133.31 365.845 128.252 364.357 123.166L365.324 121.564C365.32 116.182 359.11 108.75 355.93 104.626C351.553 98.9485 345.583 93.5777 339.581 89.6515C337.945 88.582 334.339 87.8072 333.248 86.4385C334.08 86.1497 333.815 86.341 334.431 85.7597L334.838 85.3495Z" fill="#FAC647"/>
<path d="M365.324 121.563C363.796 118.311 356.957 115.297 353.66 114.126C350.438 112.982 346.46 112.138 343.063 112.688C342.01 113.508 342.007 113.721 341.604 114.938L341.812 115.83C343.444 116.804 345.535 116.911 347.38 117.268C349.742 117.726 352.083 118.392 354.315 119.295C357.052 120.401 360.34 123.504 363.187 123.644L364.357 123.165L365.324 121.563Z" fill="#8B3A23"/>
<path d="M346.485 181.516L344.25 181.492C342.648 181.594 340.809 182.668 339.84 183.938C338.803 185.296 338.17 187.085 338.517 188.784C339.009 191.187 340.44 192.186 342.403 193.411C343.413 193.47 344.619 193.638 345.608 193.391C347.359 192.953 348.999 192.081 349.926 190.451C350.628 189.217 350.73 187.627 350.39 186.278C349.791 183.903 348.526 182.745 346.485 181.516Z" fill="#BD6B49"/>
<path d="M351.727 130.592C347.4 130.283 343.286 130.52 339.392 132.584C334.961 134.933 332.596 138.357 331.205 143.105C329.928 147.462 330.85 152.824 332.984 156.751C335.477 161.338 339.535 164.237 344.457 165.773C348.251 166.744 352.477 166.112 355.946 164.364C360.404 162.119 363.273 157.913 364.675 153.214C366.12 148.372 365.835 142.785 363.257 138.363C360.641 133.877 356.621 131.834 351.727 130.592Z" fill="#FEFDF6"/>
<path d="M352.17 137.686C348.821 137.526 345.974 137.733 343.032 139.572C340.352 141.245 338.288 144.097 337.7 147.224C337.131 150.251 337.689 153.431 339.407 156C341.586 159.263 344.647 160.762 348.357 161.567C351.198 161.692 353.945 161.46 356.455 159.99C359.34 158.302 361.757 155.176 362.57 151.93C363.345 148.833 362.787 146.124 361.064 143.438C358.948 140.138 355.906 138.485 352.17 137.686Z" fill="#070405"/>
<path d="M357.145 142.056L356.667 142.045C355.036 142.019 353.887 141.93 352.689 143.198C351.847 144.089 351.492 144.992 351.586 146.234C351.718 147.986 352.539 148.734 353.78 149.83L354.242 149.879C355.639 149.936 356.905 149.645 357.912 148.634C358.747 147.797 359.275 146.702 359.214 145.5C359.133 143.923 358.23 143.088 357.145 142.056Z" fill="#FEFDF6"/>
<path d="M433.579 697.825L418.371 697.457L418.523 699.375C420.367 700.786 448.932 700.486 453.563 700.455C454.139 699.599 454.081 699.165 454.154 698.152C452.475 697.891 450.665 697.933 448.962 697.852L433.579 697.825Z" fill="#5E1E16"/>
<path d="M480.525 702.337L469.323 701.967L469.313 704.465C471.059 706.052 500.678 705.051 504.938 704.924C505.499 704.083 505.377 703.787 505.354 702.76L487.761 702.482L480.525 702.337Z" fill="#5E1E16"/>
<path d="M345.564 699.488C345.103 701.297 344.617 703.072 344.401 704.93L380.893 705.597C381.628 704.696 381.312 703.953 381.239 702.82L355.511 702.398C353.554 702.432 351.677 702.221 349.752 701.869C347.857 701.521 346.658 701.119 345.564 699.488Z" fill="#752D1A"/>
<path d="M322.276 698.828C313.749 699.482 304.952 698.658 296.436 698.007C292.825 697.73 289.352 697.751 285.752 697.189L285.669 700.688C287.109 701.633 291.032 701.337 292.788 701.42C302.406 701.879 312.345 702.352 321.937 701.208C322.374 700.331 322.315 699.778 322.276 698.828Z" fill="#5E1E16"/>
<path d="M485.892 680.545L478.558 681.458L474.719 682.635L471.802 689.957C470.652 693.931 469.663 697.828 469.322 701.966L480.525 702.335L487.76 702.481C486.682 700.573 485.6 698.541 485.142 696.383C484.034 691.168 485.322 685.736 485.892 680.545Z" fill="#9A4C23"/>
<path d="M478.559 681.459L474.72 682.636L471.803 689.957C470.652 693.931 469.664 697.828 469.323 701.966L480.525 702.336L477.67 701.812C474.2 695.647 477.621 687.941 478.559 681.459Z" fill="#8B3A23"/>
<path d="M498.447 682.599C494.049 681.042 490.575 680.426 485.892 680.546C485.322 685.737 484.034 691.169 485.142 696.384C485.6 698.542 486.682 700.574 487.76 702.482L505.354 702.759L504.48 694.439C503.972 690.916 502.854 687.626 501.374 684.405L498.447 682.599Z" fill="#AA5841"/>
<path d="M316.63 679.86C314.893 679.062 313.532 678.622 311.626 678.347L311.018 678.25C304.984 677.367 296.885 677.931 291.332 680.543C288.239 683.42 287.644 686.963 286.661 690.88L285.753 697.189C289.353 697.751 292.826 697.73 296.438 698.006C304.953 698.657 313.751 699.482 322.277 698.828L320.782 689.59C320.051 686.18 318.671 682.697 316.63 679.86Z" fill="#752D1A"/>
<path d="M376.654 683.51C370.745 680.561 363.892 680.525 357.451 681.51C354.848 682.01 352.654 682.713 350.253 683.845C349.252 685.73 348.292 687.588 347.766 689.675L345.563 699.487C346.657 701.117 347.856 701.519 349.751 701.867C351.676 702.22 353.553 702.431 355.51 702.397L381.238 702.818L378.908 689.296L376.654 683.51Z" fill="#AA5841"/>
<path d="M357.451 681.512C354.848 682.011 352.654 682.715 350.253 683.846C349.253 685.732 348.292 687.59 347.766 689.677L345.563 699.488C346.658 701.119 347.856 701.521 349.751 701.869C351.677 702.221 353.553 702.432 355.511 702.398C355.377 696.453 355.508 688.352 357.59 682.802C357.778 682.304 357.584 682.017 357.451 681.512Z" fill="#8B3A23"/>
<path d="M449.745 679.394C446.539 676.865 443.661 676.596 439.742 676.084C435.864 676.14 432.062 676.255 428.228 676.92L424.037 678.327C421.584 681.746 420.616 685.611 419.795 689.678C419.34 692.187 419.109 695.031 418.371 697.457L433.579 697.826L448.962 697.852C450.665 697.934 452.475 697.892 454.154 698.153C453.473 695.558 453.514 692.312 453.259 689.629C452.64 685.967 451.28 682.747 449.745 679.394Z" fill="#8B3A23"/>
<path d="M428.227 676.92L424.036 678.327C421.583 681.745 420.615 685.611 419.794 689.677C419.339 692.187 419.108 695.031 418.37 697.457L433.578 697.825L430.344 697.312C429.249 694.417 428.513 691.276 428.268 688.187C428.087 685.9 428.135 683.433 428.285 681.145C428.376 679.757 428.765 678.233 428.227 676.92Z" fill="#752D1A"/>
<path d="M449.745 679.394C446.539 676.865 443.661 676.596 439.742 676.084C440.273 683.978 439.478 691.05 445.32 697.372L448.962 697.852C450.665 697.934 452.475 697.892 454.154 698.153C453.473 695.558 453.514 692.312 453.259 689.629C452.64 685.967 451.28 682.747 449.745 679.394Z" fill="#9A4C23"/>
<path d="M366.481 197.205C365.499 198.372 364.522 199.502 363.706 200.795C357.676 206.976 350.781 213.962 343.156 218.157C339.098 221.28 334.161 223.639 329.583 225.923C328.229 230.918 325.306 233.942 321.491 237.236L319.782 261.821L315.577 298.541L313.055 318.536L307.024 361.49L303.5 381.509L314.17 381.838L308.939 414.281C308.197 418.181 307.775 422.268 306.702 426.084L306.725 426.28C305.677 428.876 305.339 431.609 304.672 434.306C303.708 438.208 302.155 442.563 301.804 446.516C300.799 453.366 301.672 460.537 302.384 467.372L302.297 467.62C298.761 470.461 295.09 472.037 290.659 473.012C288.328 473.525 285.402 473.469 283.02 473.309C283.878 484.061 285.691 493.532 290.002 503.456L290.555 531.473C290.653 535.895 290.382 540.66 290.998 545.031L291.655 584.447L292.075 604.974L292.456 654.12L291.331 680.543C296.884 677.932 304.983 677.367 311.017 678.251L311.625 678.347C313.531 678.623 314.892 679.063 316.629 679.86L308.939 636.98L321.974 532.13L350.254 545.031V683.846C352.654 682.715 354.849 682.011 357.451 681.512C363.892 680.527 370.746 680.563 376.655 683.511L373.966 652.538V604.974L379.818 557.532L400.028 558.229L411.876 557.532L425.692 652.557L424.036 678.328L428.227 676.921C432.061 676.256 435.864 676.141 439.741 676.085C443.661 676.597 446.539 676.865 449.745 679.395L442.54 615.376L449.745 555.441L462.054 551.26H474.719L478.558 595.165L478.878 654.08L474.719 682.637L478.558 681.46L485.892 680.546C490.575 680.426 494.049 681.042 498.447 682.599L499.062 602.338L500.453 586.433L505.026 532.13L506.967 504.781C506.707 496.28 505.342 487.079 502.565 479.037C498.676 466.772 491.422 456.684 482.356 447.682C480.586 446.032 478.411 444.627 476.431 443.227C467.872 437.17 457.313 432.351 447.1 429.931C430.909 425.366 414.728 422.032 399.699 414.149C397.858 412.296 395.317 410.982 393.338 409.205C390.398 406.567 387.91 403.526 385.042 400.825C385.511 400.199 386.11 399.699 386.68 399.166C380.013 388.463 377.07 375.876 373.722 363.863C373.891 361.568 373.371 359.401 373.036 357.143L371.17 344.534L367.45 308.84L365.509 223.77L366.481 197.205Z" fill="#FAC647"/>
<path d="M301.805 446.516C300.799 453.365 301.673 460.536 302.384 467.371C304.931 464.906 307.229 461.936 307.427 458.25C307.68 453.566 304.88 449.71 301.805 446.516Z" fill="#AA5841"/>
<path d="M367.611 339.04C364.174 339.077 361.122 338.401 357.82 337.516L361.244 356.645L361.462 356.586C364.523 355.163 367.816 354.637 371.139 354.251L367.611 339.04Z" fill="#FDDD7F"/>
<path d="M373.971 617.296C369.769 617.25 365.989 616.972 362.765 620.128C361.297 621.564 360.218 623.507 360.283 625.604C360.351 627.78 361.436 629.18 363.039 630.538C363.755 631.144 364.393 631.498 365.25 631.853L365.752 632.067C368.037 632.963 371.203 632.749 373.592 632.31L373.971 617.296Z" fill="#BD6B49"/>
<path d="M479.747 633.651C482.624 633.949 485.732 634.211 488.443 632.986C490.22 632.182 491.618 630.871 492.292 629.023C493.029 627.002 492.874 624.749 491.924 622.829C491.068 621.1 489.569 619.659 487.689 619.125L487.194 618.994C484.542 618.276 481.975 618.35 479.249 618.369L479.747 633.651Z" fill="#BD6B49"/>
<path d="M316.99 360.146L307.024 361.488L303.501 381.508L314.17 381.836L316.99 360.146Z" fill="#EE9427"/>
<path d="M326.18 296.525C322.572 297.671 319.371 298.31 315.577 298.539L313.055 318.535C316.436 319.326 319.483 320.408 322.528 322.094C322.613 318.893 323.451 315.646 323.971 312.492L326.18 296.525Z" fill="#EE9427"/>
<path d="M351.264 585.768L352.127 604.845C356.872 605.052 362.168 603.559 365.812 600.412C367.399 599.041 368.547 597.633 368.655 595.483C368.745 593.702 368.145 592.192 366.938 590.886C362.997 586.621 356.73 585.853 351.264 585.768Z" fill="#BD6B49"/>
<path d="M399.698 414.148L399.492 415.01C405.11 423.733 413.314 428.626 423.327 430.798C429.811 432.204 435.739 432.286 442.312 431.362C443.527 431.191 445.276 431.156 446.35 430.549C446.617 430.397 446.881 430.128 447.1 429.93C430.908 425.365 414.727 422.031 399.698 414.148Z" fill="#EE9427"/>
<path d="M331.128 264.46L330.828 264.42L326.262 296.341C330.492 294.634 334.395 292.087 336.99 288.243C339.871 283.977 340.599 279.557 339.584 274.559C338.574 269.585 335.071 267.103 331.128 264.46Z" fill="#AA5841"/>
<path d="M500.453 586.432C499.334 585.17 496.755 585.169 495.077 585.077C491.405 584.874 486.572 585.435 483.776 588.021C482.028 589.638 481.31 591.496 481.298 593.862C481.287 595.962 482.107 597.522 483.587 598.955C486.556 601.826 491.39 602.988 495.448 602.812L499.062 602.337L500.453 586.432Z" fill="#BD6B49"/>
<path d="M354.924 302.271C349.979 304.41 345.287 306.969 343.186 312.291C342.123 314.982 341.847 317.186 342.24 320.062L342.306 320.565C343.045 325.854 346.164 330.816 350.472 333.951C352.594 335.496 354.966 336.485 357.457 337.27L354.924 302.271Z" fill="#BD6B49"/>
<path d="M322.527 322.096L317.145 359.966C322.561 358.354 327.931 354.695 331.15 350.023C333.844 346.114 335.046 341.443 334.15 336.751C332.853 329.953 328.038 325.705 322.527 322.096Z" fill="#AA5841"/>
<path d="M319.782 261.82L315.577 298.54C319.371 298.31 322.572 297.672 326.18 296.526L326.261 296.341L330.828 264.419C327.054 262.695 323.891 262.117 319.782 261.82Z" fill="#8B3A23"/>
<path d="M322.527 322.095C319.482 320.408 316.436 319.326 313.055 318.535L307.023 361.488L316.989 360.147L317.145 359.965L322.527 322.095Z" fill="#8B3A23"/>
<path d="M464.215 551.7C462.334 546.02 459.044 540.108 455.925 534.988C456.893 539.52 457.444 543.515 456.563 548.123C456.395 548.998 456.184 550.322 455.588 551.024C453.959 552.944 449.433 553.435 447 553.87C438.222 555.44 429.326 556.474 420.404 556.569C412.1 556.658 403.241 557.027 395.013 555.959C389.154 546.866 387.063 536.85 383.726 526.785C383.553 533.801 382.716 540.752 381.838 547.714C381.412 551.09 380.615 554.693 380.654 558.082C392.637 560.551 405.039 560.885 417.248 560.471C424.349 560.293 431.519 560.06 438.563 559.07C443.941 558.315 449.157 556.865 454.397 555.485C457.7 554.643 461.062 553.015 464.215 551.7Z" fill="url(#paint0_linear_202_746)"/>
<path d="M506.967 504.779C499.372 504.852 492.886 506.822 487.396 512.307C484.723 514.979 482.028 519.269 482.136 523.166C482.212 525.943 483.956 528.398 485.984 530.162C489.527 533.245 494.02 534.82 498.722 534.35C500.593 534.162 503.675 533.428 505.026 532.128L506.967 504.779Z" fill="#E09779"/>
<path d="M386.645 420.52C383.01 420.133 378.44 421.108 375.22 422.806C371.971 424.519 369.172 427.278 368.168 430.886C367.607 432.903 368.44 435.328 369.541 437.022C372.776 441.993 378.694 444.271 384.245 445.325C386.216 445.521 388.55 445.676 390.496 445.316L390.937 445.228C392.227 444.988 393.45 444.724 394.68 444.25C397.867 443.021 400.9 440.683 402.283 437.488L402.501 436.956C402.805 436.228 403.155 435.461 403.183 434.657C403.262 432.322 401.674 429.204 400.209 427.445C396.591 423.1 392.206 421.082 386.645 420.52Z" fill="#BD6B49"/>
<path d="M455.133 494.31C452.852 494.24 450.595 494.087 448.378 494.73L447.75 494.924L445.125 495.816C441.287 497.41 438.3 500.462 436.849 504.375C435.492 508.034 435.658 512.167 437.419 515.661C439.425 519.639 442.6 521.47 446.642 522.87C450.931 523.584 455.411 523.569 459.28 521.332C462.674 519.371 464.993 515.775 465.915 512.022C466.893 508.043 465.992 503.25 463.761 499.8C461.662 496.555 458.772 495.123 455.133 494.31Z" fill="#BD6B49"/>
<path d="M363.705 200.795C357.675 206.976 350.78 213.961 343.155 218.157C339.098 221.28 334.16 223.638 329.582 225.922C328.229 230.917 325.305 233.942 321.491 237.235L319.781 261.821C323.89 262.117 327.053 262.695 330.827 264.42L331.127 264.46L332.293 253.125C332.561 250.95 332.661 248.52 333.309 246.428C334.753 241.766 339.007 236.901 341.895 233.02C344.318 229.765 346.619 226.314 349.378 223.339C350.498 221.497 352.109 219.716 353.432 217.998L363.353 205.396L363.705 200.795Z" fill="#EE9427"/>
<path d="M433.552 447.507C428.592 446.857 422.583 447.431 418.37 450.31C415.642 452.175 413.406 455.059 412.813 458.359C412.319 461.116 413.162 464.562 414.812 466.818C418.879 472.381 425.06 474.16 431.569 475.09C436.541 475.228 442.061 474.228 446.273 471.458C449.487 469.345 452.068 466.504 452.723 462.604C453.171 459.939 452.447 457.339 450.788 455.214C446.801 450.105 439.641 448.398 433.552 447.507Z" fill="#BD6B49"/>
<path d="M396.3 481.573C392.106 481.057 387.974 481.564 384.206 483.55C380.366 485.574 377.424 488.757 376.178 492.981C374.941 497.181 375.463 501.313 377.745 505.082C380.501 509.635 385.911 512.206 390.911 513.333C395.023 513.737 399.065 513.889 402.938 512.145C406.478 510.55 409.377 507.301 410.526 503.59C411.823 499.401 411.257 494.395 409.09 490.594C406.158 485.455 401.895 483 396.3 481.573Z" fill="#BD6B49"/>
<path d="M482.356 447.682C477.214 448.393 467.449 449.305 464.16 453.698C463.086 455.133 462.585 456.697 462.309 458.438L462.223 458.941C461.487 463.783 463.794 469.011 466.655 472.763C471.18 478.698 477.724 482.303 485.084 483.292C490.662 484.04 497.128 483.242 501.687 479.734L502.564 479.037C498.676 466.771 491.422 456.684 482.356 447.682Z" fill="#E09779"/>
<path d="M314.171 381.838L308.94 414.281C308.198 418.181 307.776 422.268 306.703 426.084L306.726 426.28C312.788 427.344 319.001 427.343 324.962 425.693C330.488 424.162 335.887 420.981 338.651 415.783C341.077 411.22 340.928 405.816 339.44 400.97C337.459 394.514 332.953 389.165 326.963 386.044L326.369 385.74C322.474 383.723 318.445 382.679 314.171 381.838Z" fill="#AA5841"/>
<path d="M371.138 354.25C367.816 354.635 364.522 355.162 361.462 356.585L361.243 356.644C353.92 360.35 347.452 365.189 344.746 373.31C343.056 378.379 343.04 384.479 345.519 389.301C348.661 395.412 355.242 399.246 361.636 401.116C367.722 402.897 374.623 403.023 380.812 401.736C382.151 401.458 383.546 401.271 384.835 400.806L385.041 400.823C385.51 400.198 386.109 399.698 386.68 399.164C380.012 388.461 377.069 375.875 373.721 363.861L371.138 354.25Z" fill="url(#paint1_linear_202_746)"/>
<path d="M371.138 354.25C367.816 354.635 364.522 355.162 361.462 356.585C364.591 369.338 370.24 382.934 378.15 393.438C380.097 396.024 382.238 398.844 384.835 400.806L385.041 400.823C385.51 400.198 386.109 399.698 386.68 399.164C380.012 388.461 377.069 375.875 373.721 363.861L371.138 354.25Z" fill="#E09779"/>
<path d="M342.825 441.896C337.331 441.475 331.134 442.61 326.813 446.237C323.06 449.387 320.57 453.923 320.262 458.861C319.943 463.985 321.488 468.666 324.948 472.473C329.568 477.558 336.866 479.464 343.478 479.738C349.451 479.594 355.19 478.53 360.034 474.742C363.257 472.221 365.395 468.777 365.877 464.695C366.392 460.341 364.535 455.134 361.85 451.712C357.127 445.689 350.309 442.71 342.825 441.896Z" fill="#BD6B49"/>
<path d="M302.297 467.619C298.76 470.46 295.09 472.036 290.658 473.011C288.328 473.524 285.401 473.468 283.019 473.309C283.877 484.061 285.691 493.531 290.001 503.456C296.25 515.445 302.876 525.143 313.687 533.531C316.794 535.942 320.164 537.903 323.378 540.145L348.31 550.442C348.761 549.575 348.801 545.213 348.3 544.425C347.891 543.782 345.374 542.504 344.585 542.001C342.462 540.646 340.449 539.09 338.507 537.486C334.094 533.843 330.302 529.375 326.646 525C316.772 513.184 310.218 497.513 306.089 482.804C304.736 477.983 303.894 472.858 302.453 468.11L302.297 467.619Z" fill="#EE9427"/>
<path d="M366.482 197.205C365.5 198.372 364.523 199.502 363.707 200.795L363.355 205.397L353.433 217.998C352.111 219.716 350.499 221.498 349.379 223.34C349.675 228.715 346.847 234.8 348.132 240.068C345.314 242.789 343.475 245.053 342.656 249.001L342.56 249.446C341.784 253.361 343.483 257.56 345.656 260.74C347.279 263.114 349.71 265.468 352.126 267.021L352.601 267.333C355.093 268.942 357.855 269.804 360.781 270.196L362.278 300.482C359.755 300.837 357.326 301.419 354.925 302.273L357.458 337.271L357.821 337.516C361.123 338.401 364.175 339.077 367.613 339.04L371.14 354.251L373.723 363.863C373.892 361.568 373.372 359.401 373.037 357.143L371.171 344.534L367.451 308.84L365.51 223.77L366.482 197.205Z" fill="#752D1A"/>
<path d="M363.354 205.396L353.432 217.998C352.11 219.716 350.498 221.497 349.378 223.339C349.674 228.715 346.846 234.8 348.131 240.067C352.194 237.093 356.72 235.348 361.578 234.204L363.354 205.396Z" fill="#FDDD7F"/>
<path d="M362.277 300.482C359.754 300.837 357.324 301.419 354.924 302.273L357.457 337.271L357.82 337.516C361.122 338.401 364.174 339.077 367.611 339.04C366.687 335.231 366.264 331.193 365.649 327.317L362.277 300.482Z" fill="#E09779"/>
<path d="M361.578 234.203C356.72 235.347 352.195 237.092 348.131 240.067C345.314 242.788 343.474 245.052 342.655 249L342.56 249.445C341.783 253.36 343.482 257.559 345.656 260.739C347.278 263.113 349.709 265.467 352.125 267.02L352.601 267.332C355.093 268.941 357.854 269.803 360.78 270.195L361.578 234.203Z" fill="#E09779"/>
<path d="M454.396 555.484C449.156 556.864 443.94 558.314 438.562 559.069C431.518 560.059 424.348 560.292 417.247 560.47L418.521 568.164L422.389 594.655L423.02 599.285L425.692 652.555L424.036 678.326L428.227 676.919C432.061 676.254 435.863 676.139 439.741 676.083C443.66 676.595 446.538 676.864 449.744 679.393L446.981 653.263C445.595 639.966 444.904 625.645 445.575 612.277C446.107 601.696 447.475 591.16 449.15 580.705L453.16 559.819C453.744 558.509 454.018 556.879 454.396 555.484Z" fill="url(#paint2_linear_202_746)"/>
<path d="M436.307 617.28C434.559 617.241 433.277 617.359 431.742 618.249C430.243 619.117 429.142 620.38 428.684 622.063L428.575 622.501C428.23 623.843 428.236 625.107 428.695 626.438C429.466 628.678 431.538 629.716 433.511 630.712L436.125 630.748C438.01 630.637 439.328 629.458 440.468 628.05C441.993 626.164 441.851 623.845 441.672 621.563C440.201 619.047 439.108 618.112 436.307 617.28Z" fill="#9A4C23"/>
<path d="M423.02 599.287C423.883 600.304 424.818 601.271 425.978 601.952C428.302 603.315 431.417 603.422 433.979 602.737C435.887 602.227 437.765 601.298 438.68 599.459C439.663 597.481 439.532 595.278 438.782 593.251C437.927 590.943 436.374 589.269 434.078 588.34C431.838 587.433 429.571 587.465 427.346 588.422C424.522 589.637 423.479 591.954 422.389 594.657L423.02 599.287Z" fill="#9A4C23"/>
<path d="M323.379 540.144C320.164 537.903 316.795 535.941 313.687 533.531C302.876 525.142 296.251 515.445 290.002 503.455L290.555 531.471C290.653 535.894 290.382 540.659 290.998 545.03L291.655 584.445L292.075 604.973L292.456 654.119L291.331 680.542C296.884 677.931 304.983 677.366 311.017 678.249L311.625 678.346C313.531 678.621 314.892 679.062 316.629 679.859L315.027 653.425L314.756 632.993L315.03 617.316L321.49 553.071C321.973 552.015 321.994 550.074 322.146 548.886L323.379 540.144Z" fill="url(#paint3_linear_202_746)"/>
<path d="M315.029 617.316C311.629 617.541 307.853 617.342 305.39 620.12C303.82 621.89 303.086 623.666 303.41 626.062C303.704 628.228 305.396 630.105 307.175 631.224C309.529 632.703 312.068 632.8 314.756 632.993L315.029 617.316Z" fill="#9A4C23"/>
<path d="M292.076 604.973C297.385 604.653 302.222 603.255 306.431 599.895C308.254 598.439 309.833 596.725 310.029 594.312C310.168 592.614 309.052 590.997 307.935 589.818C303.851 585.51 297.213 584.692 291.656 584.445L292.076 604.973Z" fill="#9A4C23"/>
</g>
<defs>
<linearGradient id="paint0_linear_202_746" x1="423.425" y1="560.286" x2="418.993" y2="525.801" gradientUnits="userSpaceOnUse">
<stop stop-color="#FA9B0A"/>
<stop offset="1" stop-color="#E88215"/>
</linearGradient>
<linearGradient id="paint1_linear_202_746" x1="344.629" y1="383.656" x2="379.467" y2="377.764" gradientUnits="userSpaceOnUse">
<stop stop-color="#BB6853"/>
<stop offset="1" stop-color="#DC8E6B"/>
</linearGradient>
<linearGradient id="paint2_linear_202_746" x1="401.123" y1="601.242" x2="469.837" y2="629.37" gradientUnits="userSpaceOnUse">
<stop stop-color="#CC7704"/>
<stop offset="1" stop-color="#FFC027"/>
</linearGradient>
<linearGradient id="paint3_linear_202_746" x1="282.321" y1="505.551" x2="324.054" y2="677.289" gradientUnits="userSpaceOnUse">
<stop stop-color="#B46307"/>
<stop offset="1" stop-color="#E79F18"/>
</linearGradient>
<clipPath id="clip0_202_746">
<rect width="768" height="768" fill="white" transform="matrix(-1 0 0 1 768 0)"/>
</clipPath>
</defs>
</svg>
