<svg width="486" height="177" viewBox="0 0 486 177" fill="none" xmlns="http://www.w3.org/2000/svg">
<path d="M13 168.882C20.6667 171.882 38.7 177.482 49.5 175.882C55.5 170.882 59.5 159.382 66.5 159.382C73.5 159.382 79.5 155.382 86.5 157.382C93.5 159.382 88.5 161.881 100 162.381L109.5 170.881C112.5 170.881 119.7 169.181 124.5 162.381C127.667 163.882 135 165.383 139 159.382C144 151.881 149.5 136.881 158 138.381C166.5 139.881 170.5 136.88 179.5 138.381C186.7 139.581 192.167 138.881 194 138.381C198.167 139.881 207 143.181 209 144.381C211.5 145.881 217.5 144.381 222.5 141.381C227.5 138.381 228 150.381 236 148.381C244 146.381 247.5 143.381 249.5 145.881C251.5 148.381 253.5 153.381 257 150.881C260.5 148.381 294 117.881 304.5 104.881C315 91.8809 326 98.8809 334 79.3809C338.5 71.3809 365.5 64.3809 370.5 58.3809C373 55.3809 389.5 67.3809 395.5 63.3809C401.5 59.3809 407.5 50.8821 410.5 51.8821C413.5 52.8821 416.5 57.383 419 55.883C421.5 54.383 432 43.883 436.5 46.383C441 48.883 475.5 63.3832 485 55.883" stroke="url(#paint0_linear_4_52)" stroke-width="1.5"/>
<path d="M9 154.882C16.6667 157.882 34.7 163.482 45.5 161.882C51.5 156.882 55.5 145.382 62.5 145.382C69.5 145.382 75.5 141.382 82.5 143.382C89.5 145.382 84.5 147.881 96 148.381L105.5 156.881C108.5 156.881 115.7 155.181 120.5 148.381C123.667 149.882 131 151.383 135 145.382C140 137.881 145.5 122.881 154 124.381C162.5 125.881 166.5 122.88 175.5 124.381C182.7 125.581 188.167 124.881 190 124.381C194.167 125.881 203 129.181 205 130.381C207.5 131.881 213.5 130.381 218.5 127.381C223.5 124.381 224 136.381 232 134.381C240 132.381 243.5 129.381 245.5 131.881C247.5 134.381 249.5 139.381 253 136.881C256.5 134.381 290 103.881 300.5 90.8809C311 77.8809 322 84.8809 330 65.3809C334.5 57.3809 361.5 50.3809 366.5 44.3809C369 41.3809 385.5 53.3809 391.5 49.3809C397.5 45.3809 403.5 36.8821 406.5 37.8821C409.5 38.8821 412.5 43.383 415 41.883C417.5 40.383 428 29.883 432.5 32.383C437 34.883 471.5 49.3832 481 41.883" stroke="url(#paint1_linear_4_52)" stroke-opacity="0.5" stroke-width="1.5"/>
<path d="M6 138.882C13.6667 141.882 31.7 147.482 42.5 145.882C48.5 140.882 52.5 129.382 59.5 129.382C66.5 129.382 72.5 125.382 79.5 127.382C86.5 129.382 81.5 131.881 93 132.381L102.5 140.881C105.5 140.881 112.7 139.181 117.5 132.381C120.667 133.882 128 135.383 132 129.382C137 121.881 142.5 106.881 151 108.381C159.5 109.881 163.5 106.88 172.5 108.381C179.7 109.581 185.167 108.881 187 108.381C191.167 109.881 200 113.181 202 114.381C204.5 115.881 210.5 114.381 215.5 111.381C220.5 108.381 221 120.381 229 118.381C237 116.381 240.5 113.381 242.5 115.881C244.5 118.381 246.5 123.381 250 120.881C253.5 118.381 287 87.8809 297.5 74.8809C308 61.8809 319 68.8809 327 49.3809C331.5 41.3809 358.5 34.3809 363.5 28.3809C366 25.3809 382.5 37.3809 388.5 33.3809C394.5 29.3809 400.5 20.8821 403.5 21.8821C406.5 22.8821 409.5 27.383 412 25.883C414.5 24.383 425 13.883 429.5 16.383C434 18.883 468.5 33.3832 478 25.883" stroke="url(#paint2_linear_4_52)" stroke-opacity="0.4" stroke-width="1.5"/>
<path d="M1 123.882C8.66667 126.882 26.7 132.482 37.5 130.882C43.5 125.882 47.5 114.382 54.5 114.382C61.5 114.382 67.5 110.382 74.5 112.382C81.5 114.382 76.5 116.881 88 117.381L97.5 125.881C100.5 125.881 107.7 124.181 112.5 117.381C115.667 118.882 123 120.383 127 114.382C132 106.881 137.5 91.8807 146 93.3807C154.5 94.8807 158.5 91.8799 167.5 93.3807C174.7 94.5813 180.167 93.881 182 93.3807C186.167 94.8808 195 98.181 197 99.381C199.5 100.881 205.5 99.3812 210.5 96.381C215.5 93.3807 216 105.381 224 103.381C232 101.381 235.5 98.381 237.5 100.881C239.5 103.381 241.5 108.381 245 105.881C248.5 103.381 282 72.8809 292.5 59.8809C303 46.8809 314 53.8809 322 34.3809C326.5 26.3809 353.5 19.3809 358.5 13.3809C361 10.3809 377.5 22.3809 383.5 18.3809C389.5 14.3809 395.5 5.8821 398.5 6.8821C401.5 7.8821 404.5 12.383 407 10.883C409.5 9.383 420 -1.117 424.5 1.383C429 3.883 463.5 18.3832 473 10.883" stroke="url(#paint3_linear_4_52)" stroke-opacity="0.2" stroke-width="1.5"/>
<defs>
<linearGradient id="paint0_linear_4_52" x1="106.012" y1="214.297" x2="481.522" y2="181.202" gradientUnits="userSpaceOnUse">
<stop stop-color="#FACC15" stop-opacity="0"/>
<stop offset="0.51" stop-color="#D0AA11"/>
<stop offset="1" stop-color="#94790C" stop-opacity="0"/>
</linearGradient>
<linearGradient id="paint1_linear_4_52" x1="102.012" y1="200.297" x2="477.522" y2="167.202" gradientUnits="userSpaceOnUse">
<stop stop-color="#FACC15" stop-opacity="0"/>
<stop offset="0.51" stop-color="#D0AA11"/>
<stop offset="1" stop-color="#94790C" stop-opacity="0"/>
</linearGradient>
<linearGradient id="paint2_linear_4_52" x1="99.0123" y1="184.297" x2="474.522" y2="151.202" gradientUnits="userSpaceOnUse">
<stop stop-color="#FACC15" stop-opacity="0"/>
<stop offset="0.51" stop-color="#D0AA11"/>
<stop offset="1" stop-color="#94790C" stop-opacity="0"/>
</linearGradient>
<linearGradient id="paint3_linear_4_52" x1="94.0123" y1="169.297" x2="469.522" y2="136.202" gradientUnits="userSpaceOnUse">
<stop stop-color="#FACC15" stop-opacity="0"/>
<stop offset="0.51" stop-color="#D0AA11"/>
<stop offset="1" stop-color="#94790C" stop-opacity="0"/>
</linearGradient>
</defs>
</svg>
