<svg width="585" height="236" viewBox="0 0 585 236" fill="none" xmlns="http://www.w3.org/2000/svg">
<path d="M-37.89 211.104C-25.585 206.717 2.1661 195.073 14.7298 183.59C30.4343 169.235 39.2899 209.451 49.8005 216.851C60.311 224.25 108.223 217.067 112.618 214.433C116.134 212.326 150.557 195.475 167.328 187.314C172.39 184.589 182.708 178.571 183.485 176.293C184.457 173.445 227.718 137.016 238.599 132.144C249.481 127.272 307.375 148.607 315.466 148.187C323.557 147.767 353.485 113.151 364.243 112.369C375 111.587 398.803 136.872 420.656 127.794C438.138 120.531 451.338 117.064 455.752 116.238C466.897 109.972 491.272 95.7988 499.614 89.2341C510.043 81.0282 523.591 75.7937 537.41 72.5592C548.466 69.9717 564.932 60.2218 571.782 55.6703" stroke="url(#paint0_linear_4_47)" stroke-width="2.01844"/>
<path d="M-40.2436 193.768C-27.9385 189.381 -0.187412 177.737 12.3762 166.254C28.0808 151.9 36.9364 192.115 47.447 199.515C57.9575 206.915 105.869 199.731 110.264 197.097C113.781 194.99 148.203 178.139 164.975 169.978C170.037 167.253 180.355 161.235 181.132 158.957C182.103 156.109 225.365 119.68 236.246 114.808C247.127 109.936 305.022 131.271 313.113 130.851C321.204 130.432 351.132 95.8147 361.889 95.033C372.647 94.2513 396.45 119.536 418.302 110.458C435.785 103.195 448.984 99.7283 453.399 98.9025C464.543 92.6364 488.918 78.4629 497.261 71.8982C507.689 63.6923 521.237 58.4578 535.057 55.2233C546.113 52.6358 562.578 42.8859 569.429 38.3344" stroke="url(#paint1_linear_4_47)" stroke-opacity="0.5" stroke-width="2.01844"/>
<path d="M-42.7787 175.096C-30.4736 170.71 -2.72257 159.065 9.84108 147.582C25.5456 133.228 34.4012 173.443 44.9118 180.843C55.4224 188.243 103.334 181.059 107.729 178.425C111.245 176.318 145.668 159.468 162.44 151.306C167.502 148.581 177.82 142.563 178.597 140.285C179.568 137.437 222.83 101.009 233.711 96.1362C244.592 91.2637 302.487 112.599 310.578 112.179C318.669 111.76 348.596 77.1428 359.354 76.3611C370.112 75.5794 393.914 100.864 415.767 91.786C433.25 84.5235 446.449 81.0564 450.864 80.2307C462.008 73.9645 486.383 59.791 494.726 53.2263C505.154 45.0204 518.702 39.7859 532.522 36.5514C543.577 33.9639 560.043 24.214 566.894 19.6625" stroke="url(#paint2_linear_4_47)" stroke-opacity="0.3" stroke-width="2.01844"/>
<path d="M-45.3119 156.432C-33.0068 152.046 -5.25577 140.401 7.30788 128.918C23.0124 114.564 31.868 154.779 42.3786 162.179C52.8892 169.579 100.801 162.395 105.196 159.761C108.712 157.654 143.135 140.804 159.906 132.642C164.968 129.917 175.287 123.899 176.064 121.621C177.035 118.773 220.296 82.3445 231.178 77.4721C242.059 72.5997 299.954 93.9349 308.044 93.5152C316.135 93.0956 346.063 58.4788 356.821 57.6971C367.578 56.9153 391.381 82.2001 413.234 73.122C430.716 65.8595 443.916 62.3924 448.33 61.5666C459.475 55.3004 483.85 41.1269 492.193 34.5622C502.621 26.3563 516.169 21.1218 529.989 17.8874C541.044 15.2998 557.51 5.54994 564.361 0.998445" stroke="url(#paint3_linear_4_47)" stroke-opacity="0.2" stroke-width="2.01844"/>
<defs>
<linearGradient id="paint0_linear_4_47" x1="91.3178" y1="247.241" x2="565.633" y2="105.392" gradientUnits="userSpaceOnUse">
<stop stop-color="#FACC15" stop-opacity="0"/>
<stop offset="0.51" stop-color="#D0AA11"/>
<stop offset="1" stop-color="#94790C" stop-opacity="0"/>
</linearGradient>
<linearGradient id="paint1_linear_4_47" x1="88.9643" y1="229.905" x2="563.28" y2="88.0563" gradientUnits="userSpaceOnUse">
<stop stop-color="#FACC15" stop-opacity="0"/>
<stop offset="0.51" stop-color="#D0AA11"/>
<stop offset="1" stop-color="#94790C" stop-opacity="0"/>
</linearGradient>
<linearGradient id="paint2_linear_4_47" x1="86.4292" y1="211.233" x2="560.744" y2="69.3845" gradientUnits="userSpaceOnUse">
<stop stop-color="#FACC15" stop-opacity="0"/>
<stop offset="0.51" stop-color="#D0AA11"/>
<stop offset="1" stop-color="#94790C" stop-opacity="0"/>
</linearGradient>
<linearGradient id="paint3_linear_4_47" x1="83.896" y1="192.569" x2="558.211" y2="50.7204" gradientUnits="userSpaceOnUse">
<stop stop-color="#FACC15" stop-opacity="0"/>
<stop offset="0.51" stop-color="#D0AA11"/>
<stop offset="1" stop-color="#94790C" stop-opacity="0"/>
</linearGradient>
</defs>
</svg>
